<svg width="43" height="43" viewBox="0 0 43 43" fill="none" xmlns="http://www.w3.org/2000/svg">
<path d="M42.88 21.44C42.88 9.599 33.281 0 21.44 0C9.599 0 0 9.599 0 21.44C0 26.826 2.001 31.735 5.28 35.501V19.897H12.698V29.848H21.579V19.897H28.997V41.484C37.104 38.425 42.88 30.617 42.88 21.44Z" fill="#00CC96"/>
<path d="M12.698 35.589V41.004C15.37 42.2 18.323 42.88 21.44 42.88C21.487 42.88 21.533 42.873 21.58 42.873V35.589H12.698Z" fill="#00CC96"/>
<path d="M21.58 19.897V29.848H12.699V19.897H5.28003V35.501C7.31303 37.835 9.83603 39.723 12.698 41.004V35.589H21.579V42.873C24.192 42.856 26.685 42.356 28.997 41.484V19.897H21.58Z" fill="white"/>
<path d="M32.884 7.129C32.778 7.142 32.46 7.177 32.058 7.219C31.779 7.248 31.507 7.271 31.324 7.285C30.961 6.625 30.318 6.164 29.514 6.164C28.882 6.164 28.368 6.36 27.937 6.899C27.575 7.351 27.34 7.975 27.111 8.3C25.245 10.945 22.27 11.407 18.783 11.407C17.979 11.407 17.2 11.308 16.448 11.135C16.327 11.107 16.208 11.229 16.263 11.341C17.674 14.194 21.037 16.256 23.769 16.708V19.859H24.565V16.791C24.644 16.795 24.725 16.803 24.803 16.804C25.295 16.807 25.738 16.768 26.158 16.706V19.859H26.954V16.542C28.243 16.191 29.199 15.492 30.027 14.485C31.025 13.271 31.608 11.113 31.643 9.013C31.773 8.88 32.074 8.565 32.276 8.294C32.74 7.67 33.104 7.101 32.884 7.129ZM29.712 8.533C29.37 8.533 29.093 8.256 29.093 7.914C29.093 7.572 29.37 7.295 29.712 7.295C30.054 7.295 30.331 7.572 30.331 7.914C30.331 8.256 30.054 8.533 29.712 8.533Z" fill="white"/>
</svg>
